<svg version="1.1" preserveAspectRatio="none" xmlns="http://www.w3.org/2000/svg" width="500" height="500" viewBox="0 0 500 500"><rect width="100%" height="100%" fill="#121B31" fill-opacity="1"/><svg viewBox="138.1782 162.0003 261.6679 176" width="333" height="223.97856213926127" x="83.5px" y="138.0107px" xmlns="http://www.w3.org/2000/svg" xmlns:xlink="http://www.w3.org/1999/xlink" preserveAspectRatio="none"><defs></defs><style>.companyName {fill:#F7F7F7;fill-opacity:1;}.icon3 {fill:#D0E156;fill-opacity:1;}.icon3-str {stroke:#D0E156;stroke-opacity:1;}.shapeStroke-str {stroke:#F7F7F7;stroke-opacity:1;}.text {fill:#F7F7F7;fill-opacity:1;}</style><g opacity="1" transform="rotate(0 138.5813 162.0003)">
<svg width="260.8616" height="120" x="138.5813" y="162.0003" version="1.1" preserveAspectRatio="none" viewBox="4.16 -26.8 149.56 68.8">
  <g transform="matrix(1 0 0 1 0 0)" class="companyName"><path id="id-D6z1nYkh11" d="M4.16 0L4.16-26.40L13.48-26.40Q17.80-26.40 19.94-24.60Q22.08-22.80 22.08-19.40L22.08-19.40Q22.08-17.08 20.82-15.48Q19.56-13.88 17.24-13.40L17.24-13.40L17.24-13.36Q19.80-12.96 21.30-11.28Q22.80-9.60 22.80-7.12L22.80-7.12Q22.80-3.72 20.38-1.86Q17.96 0 13.48 0L13.48 0L4.16 0ZM6.16-14.24L13.52-14.24Q19.96-14.24 19.96-19.40L19.96-19.40Q19.96-24.56 13.52-24.56L13.52-24.56L6.16-24.56L6.16-14.24ZM6.16-1.84L13.88-1.84Q17.24-1.84 18.96-3.20Q20.68-4.56 20.68-7.12L20.68-7.12Q20.68-9.72 18.96-11.06Q17.24-12.40 13.88-12.40L13.88-12.40L6.16-12.40L6.16-1.84Z M47.04 0L43.72-8.28L31.08-8.28L27.80 0L25.68 0L36.24-26.40L38.60-26.40L49.16 0L47.04 0ZM31.84-10.12L43-10.12L38.40-21.64L37.44-24.44L37.40-24.44L36.44-21.72L31.84-10.12Z M74.36-26.40L74.36 0L71.88 0L57.88-20.72L55.92-24.24L55.88-24.24L56-20.92L56 0L54.08 0L54.08-26.40L56.60-26.40L70.56-5.72L72.56-2.16L72.48-5.48L72.48-26.40L74.36-26.40Z M92.84-12.92L103.68-12.92L103.68 0L102.08 0L102.00-4.60Q100.92-2.20 98.62-0.90Q96.32 0.40 92.92 0.40L92.92 0.40Q89.32 0.40 86.62-1.26Q83.92-2.92 82.46-6Q81.00-9.08 81.00-13.20L81.00-13.20Q81.00-17.32 82.50-20.40Q84.00-23.48 86.72-25.14Q89.44-26.80 93.04-26.80L93.04-26.80Q97.08-26.80 99.64-25.20Q102.20-23.60 103.48-20.32L103.48-20.32L101.64-19.36Q100.72-22.12 98.54-23.54Q96.36-24.96 93.04-24.96L93.04-24.96Q90.08-24.96 87.84-23.54Q85.60-22.12 84.36-19.46Q83.12-16.80 83.12-13.20L83.12-13.20Q83.12-7.72 85.74-4.58Q88.36-1.44 93.00-1.44L93.00-1.44Q95.88-1.44 97.88-2.58Q99.88-3.72 100.84-5.58Q101.80-7.44 101.80-9.56L101.80-9.56L101.80-11.04L92.84-11.04L92.84-12.92Z M112.76-1.84L128.60-1.84L128.60 0L110.76 0L110.76-26.40L112.76-26.40L112.76-1.84Z M151.60 0L148.28-8.28L135.64-8.28L132.36 0L130.24 0L140.80-26.40L143.16-26.40L153.72 0L151.60 0ZM136.40-10.12L147.56-10.12L142.96-21.64L142.00-24.44L141.96-24.44L141.00-21.72L136.40-10.12Z M4.16 42L4.16 15.60L13.48 15.60Q17.80 15.60 19.94 17.40Q22.08 19.20 22.08 22.60L22.08 22.60Q22.08 24.92 20.82 26.52Q19.56 28.12 17.24 28.60L17.24 28.60L17.24 28.64Q19.80 29.04 21.30 30.72Q22.80 32.40 22.80 34.88L22.80 34.88Q22.80 38.28 20.38 40.14Q17.96 42 13.48 42L13.48 42L4.16 42ZM6.16 27.76L13.52 27.76Q19.96 27.76 19.96 22.60L19.96 22.60Q19.96 17.44 13.52 17.44L13.52 17.44L6.16 17.44L6.16 27.76ZM6.16 40.16L13.88 40.16Q17.24 40.16 18.96 38.80Q20.68 37.44 20.68 34.88L20.68 34.88Q20.68 32.28 18.96 30.94Q17.24 29.60 13.88 29.60L13.88 29.60L6.16 29.60L6.16 40.16Z M47.04 42L43.72 33.72L31.08 33.72L27.80 42L25.68 42L36.24 15.60L38.60 15.60L49.16 42L47.04 42ZM31.84 31.88L43 31.88L38.40 20.36L37.44 17.56L37.40 17.56L36.44 20.28L31.84 31.88Z M54 40.16L72.04 40.16L72.04 42L51.64 42L51.64 40.24L69.04 17.44L52 17.44L52 15.60L71.40 15.60L71.40 17.36L54 40.16Z M95.76 42L92.44 33.72L79.80 33.72L76.52 42L74.40 42L84.96 15.60L87.32 15.60L97.88 42L95.76 42ZM80.56 31.88L91.72 31.88L87.12 20.36L86.16 17.56L86.12 17.56L85.16 20.28L80.56 31.88Z M122.64 42L120.28 42L112.72 30.56L112.60 30.56L104.80 30.56L104.80 42L102.80 42L102.80 15.60L112.60 15.60Q116.56 15.60 118.90 17.60Q121.24 19.60 121.24 23.08L121.24 23.08Q121.24 25.96 119.56 27.86Q117.88 29.76 114.96 30.32L114.96 30.32L122.64 42ZM104.80 17.44L104.80 28.68L112.56 28.68Q115.76 28.68 117.46 27.24Q119.16 25.80 119.16 23.08L119.16 23.08Q119.16 20.36 117.46 18.90Q115.76 17.44 112.56 17.44L112.56 17.44L104.80 17.44Z"/></g>
</svg>
</g><g opacity="1" transform="rotate(0 138.1782 300.0003)">
<svg width="261.6679" height="3" x="138.1782" y="300.0003" version="1.1" preserveAspectRatio="none" viewBox="0 0 261.6679 3">
  <defs><rect x="0" y="0" width="261.6679" height="3" rx="0px" ry="0px" id="id-tBXipXk0b1696005830465"></rect></defs><use class="icon3 shapeStroke-str" style="stroke-width:0;" xlink:href="#id-tBXipXk0b1696005830465"></use>
</svg>
</g><g opacity="1" transform="rotate(0 138.1782 318.0003)">
<svg width="261.6679" height="20" x="138.1782" y="318.0003" version="1.1" preserveAspectRatio="none" viewBox="4.16 -28.92 483.04 36.92">
  <g transform="matrix(1 0 0 1 0 0)" class="text"><path id="id-D-YM9nyY425" d="M4.16 0L4.16-28.92L12.08-28.92Q17.48-28.92 21.02-26.78Q24.56-24.64 26.18-21.26Q27.80-17.88 27.80-14.12L27.80-14.12Q27.80-9.92 25.84-6.70Q23.88-3.48 20.60-1.74Q17.32 0 13.48 0L13.48 0L4.16 0ZM8.04-3.76L12.72-3.76Q15.92-3.76 18.44-5.02Q20.96-6.28 22.38-8.68Q23.80-11.08 23.80-14.40L23.80-14.40Q23.80-17.80 22.32-20.24Q20.84-22.68 18.38-23.94Q15.92-25.20 13.08-25.20L13.08-25.20L8.04-25.20L8.04-3.76Z M41.96-2.80Q44.04-2.80 46-4.24L46-4.24L47.72-1.48Q46.40-0.60 44.86-0.10Q43.32 0.40 41.88 0.40L41.88 0.40Q39.12 0.40 37.06-0.74Q35-1.88 33.88-3.88Q32.76-5.88 32.76-8.40L32.76-8.40Q32.76-10.84 33.98-12.86Q35.20-14.88 37.32-16.06Q39.44-17.24 41.96-17.24L41.96-17.24Q45.20-17.24 47.38-15.34Q49.56-13.44 50.36-10.04L50.36-10.04L37.24-5.44Q37.96-4.20 39.18-3.50Q40.40-2.80 41.96-2.80L41.96-2.80ZM41.68-14.28Q39.40-14.28 37.92-12.68Q36.44-11.08 36.44-8.60L36.44-8.60Q36.44-8 36.48-7.68L36.48-7.68L46.12-11.24Q45.52-12.60 44.42-13.44Q43.32-14.28 41.68-14.28L41.68-14.28Z M77.04-17.24Q79.44-17.24 80.86-15.88Q82.28-14.52 82.36-12.28L82.36-12.28L82.36 0L78.64 0L78.64-10.92Q78.52-13.84 76-14L76-14Q74.56-14 73.42-13.14Q72.28-12.28 71.64-10.88Q71-9.48 70.96-7.88L70.96-7.88L70.96 0L67.20 0L67.20-10.92Q67.08-13.84 64.48-14L64.48-14Q63.08-14 61.94-13.14Q60.80-12.28 60.16-10.86Q59.52-9.44 59.52-7.84L59.52-7.84L59.52 0L55.80 0L55.80-16.56L59.16-16.56L59.44-13.44Q60.40-15.24 62.06-16.24Q63.72-17.24 65.84-17.24L65.84-17.24Q67.84-17.24 69.20-16.30Q70.56-15.36 70.96-13.72L70.96-13.72Q72-15.36 73.60-16.30Q75.20-17.24 77.04-17.24L77.04-17.24Z M88.16-8.44Q88.16-10.88 89.34-12.90Q90.52-14.92 92.62-16.08Q94.72-17.24 97.36-17.24L97.36-17.24Q100-17.24 102.06-16.08Q104.12-14.92 105.26-12.92Q106.40-10.92 106.40-8.44L106.40-8.44Q106.40-5.96 105.26-3.94Q104.12-1.92 102.04-0.76Q99.96 0.40 97.28 0.40L97.28 0.40Q94.68 0.40 92.60-0.70Q90.52-1.80 89.34-3.80Q88.16-5.80 88.16-8.44L88.16-8.44ZM91.92-8.40Q91.92-6.84 92.62-5.52Q93.32-4.20 94.54-3.44Q95.76-2.68 97.24-2.68L97.24-2.68Q99.56-2.68 101.08-4.32Q102.60-5.96 102.60-8.40L102.60-8.40Q102.60-10.84 101.08-12.50Q99.56-14.16 97.24-14.16L97.24-14.16Q95.72-14.16 94.52-13.38Q93.32-12.60 92.62-11.28Q91.92-9.96 91.92-8.40L91.92-8.40Z M134.32-28.92Q139.04-28.92 141.70-26.56Q144.36-24.20 144.36-19.96L144.36-19.96Q144.36-17.52 143.38-15.40Q142.40-13.28 140.22-11.96Q138.04-10.64 134.72-10.64L134.72-10.64L130.44-10.64L130.44 0L126.56 0L126.56-28.92L134.32-28.92ZM134.72-14.40Q136.80-14.40 138.10-15.28Q139.40-16.16 139.96-17.42Q140.52-18.68 140.52-19.88L140.52-19.88Q140.52-21.96 139.16-23.58Q137.80-25.20 134.92-25.20L134.92-25.20L130.44-25.20L130.44-14.40L134.72-14.40Z M153.84-12.64Q154.48-14 155.66-15.04Q156.84-16.08 158.16-16.64Q159.48-17.20 160.48-17.24L160.48-17.24L160.32-13.52Q158.52-13.60 157.06-12.80Q155.60-12 154.78-10.58Q153.96-9.16 153.96-7.56L153.96-7.56L153.96 0L150.24 0L150.24-16.56L153.56-16.56L153.84-12.64Z M163.92-8.44Q163.92-10.88 165.10-12.90Q166.28-14.92 168.38-16.08Q170.48-17.24 173.12-17.24L173.12-17.24Q175.76-17.24 177.82-16.08Q179.88-14.92 181.02-12.92Q182.16-10.92 182.16-8.44L182.16-8.44Q182.16-5.96 181.02-3.94Q179.88-1.92 177.80-0.76Q175.72 0.40 173.04 0.40L173.04 0.40Q170.44 0.40 168.36-0.70Q166.28-1.80 165.10-3.80Q163.92-5.80 163.92-8.44L163.92-8.44ZM167.68-8.40Q167.68-6.84 168.38-5.52Q169.08-4.20 170.30-3.44Q171.52-2.68 173-2.68L173-2.68Q175.32-2.68 176.84-4.32Q178.36-5.96 178.36-8.40L178.36-8.40Q178.36-10.84 176.84-12.50Q175.32-14.16 173-14.16L173-14.16Q171.48-14.16 170.28-13.38Q169.08-12.60 168.38-11.28Q167.68-9.96 167.68-8.40L167.68-8.40Z M188.20 8L185.96 5.68Q188.36 3.64 188.36-0.04L188.36-0.04L188.36-16.56L192.12-16.56L192.12 0.12Q192.12 2.96 191.18 4.88Q190.24 6.80 188.20 8L188.20 8ZM188.08-22.52Q188.08-23.40 188.76-24Q189.44-24.60 190.32-24.60L190.32-24.60Q191.20-24.60 191.86-24Q192.52-23.40 192.52-22.52L192.52-22.52Q192.52-21.64 191.86-21.04Q191.20-20.44 190.32-20.44L190.32-20.44Q189.44-20.44 188.76-21.04Q188.08-21.64 188.08-22.52L188.08-22.52Z M206.92-2.80Q209.00-2.80 210.96-4.24L210.96-4.24L212.68-1.48Q211.36-0.60 209.82-0.10Q208.28 0.40 206.84 0.40L206.84 0.40Q204.08 0.40 202.02-0.74Q199.96-1.88 198.84-3.88Q197.72-5.88 197.72-8.40L197.72-8.40Q197.72-10.84 198.94-12.86Q200.16-14.88 202.28-16.06Q204.40-17.24 206.92-17.24L206.92-17.24Q210.16-17.24 212.34-15.34Q214.52-13.44 215.32-10.04L215.32-10.04L202.20-5.44Q202.92-4.20 204.14-3.50Q205.36-2.80 206.92-2.80L206.92-2.80ZM206.64-14.28Q204.36-14.28 202.88-12.68Q201.40-11.08 201.40-8.60L201.40-8.60Q201.40-8 201.44-7.68L201.44-7.68L211.08-11.24Q210.48-12.60 209.38-13.44Q208.28-14.28 206.64-14.28L206.64-14.28Z M234.20-1.56Q233.08-0.64 231.54-0.12Q230.00 0.40 228.40 0.40L228.40 0.40Q225.72 0.40 223.66-0.68Q221.60-1.76 220.46-3.74Q219.32-5.72 219.32-8.32L219.32-8.32Q219.32-10.88 220.52-12.86Q221.72-14.84 223.72-15.92Q225.72-17 228.04-17L228.04-17Q231.84-17 234.32-14.92L234.32-14.92L232.44-12.48Q231.64-13.08 230.60-13.50Q229.56-13.92 228.36-13.92L228.36-13.92Q226.88-13.92 225.66-13.18Q224.44-12.44 223.74-11.16Q223.04-9.88 223.04-8.32L223.04-8.32Q223.04-6.76 223.78-5.48Q224.52-4.20 225.80-3.44Q227.08-2.68 228.72-2.68L228.72-2.68Q230.76-2.68 232.28-3.88L232.28-3.88L234.20-1.56Z M241.40-23.84L245.16-23.84L245.16-16.52L249.68-16.52L249.68-13.56L245.16-13.56L245.16 0L241.40 0L241.40-13.56L238.36-13.56L238.36-16.52L241.40-16.52L241.40-23.84Z M269.36-28.92L286.52-28.92L286.52-25.20L273.24-25.20L273.24-16L284.88-16L284.88-12.28L273.24-12.28L273.24 0L269.36 0L269.36-28.92Z M289.20-8.44Q289.20-10.88 290.38-12.90Q291.56-14.92 293.66-16.08Q295.76-17.24 298.40-17.24L298.40-17.24Q301.04-17.24 303.10-16.08Q305.16-14.92 306.30-12.92Q307.44-10.92 307.44-8.44L307.44-8.44Q307.44-5.96 306.30-3.94Q305.16-1.92 303.08-0.76Q301.00 0.40 298.32 0.40L298.32 0.40Q295.72 0.40 293.64-0.70Q291.56-1.80 290.38-3.80Q289.20-5.80 289.20-8.44L289.20-8.44ZM292.96-8.40Q292.96-6.84 293.66-5.52Q294.36-4.20 295.58-3.44Q296.80-2.68 298.28-2.68L298.28-2.68Q300.60-2.68 302.12-4.32Q303.64-5.96 303.64-8.40L303.64-8.40Q303.64-10.84 302.12-12.50Q300.60-14.16 298.28-14.16L298.28-14.16Q296.76-14.16 295.56-13.38Q294.36-12.60 293.66-11.28Q292.96-9.96 292.96-8.40L292.96-8.40Z M316.84-12.64Q317.48-14 318.66-15.04Q319.84-16.08 321.16-16.64Q322.48-17.20 323.48-17.24L323.48-17.24L323.32-13.52Q321.52-13.60 320.06-12.80Q318.60-12 317.78-10.58Q316.96-9.16 316.96-7.56L316.96-7.56L316.96 0L313.24 0L313.24-16.56L316.56-16.56L316.84-12.64Z M353.00-17.24Q355.32-17.24 357.20-16.12Q359.08-15 360.16-12.98Q361.24-10.96 361.24-8.32L361.24-8.32Q361.24-5.72 360.08-3.74Q358.92-1.76 356.88-0.68Q354.84 0.40 352.32 0.40L352.32 0.40Q350.52 0.40 348.88-0.38Q347.24-1.16 346.24-2.48L346.24-2.48L346.24 7.96L342.52 7.96L342.52-16.84L345.76-16.84L346.08-14.04Q347.36-15.48 349.14-16.36Q350.92-17.24 353.00-17.24L353.00-17.24ZM351.60-2.60Q353.16-2.60 354.50-3.34Q355.84-4.08 356.64-5.38Q357.44-6.68 357.44-8.28L357.44-8.28Q357.44-9.92 356.70-11.24Q355.96-12.56 354.68-13.32Q353.40-14.08 351.84-14.08L351.84-14.08Q349.72-14.08 348.22-12.90Q346.72-11.72 346.24-9.72L346.24-9.72L346.24-6.96Q346.56-5.04 348.06-3.82Q349.56-2.60 351.60-2.60L351.60-2.60Z M370.64-12.64Q371.28-14 372.46-15.04Q373.64-16.08 374.96-16.64Q376.28-17.20 377.28-17.24L377.28-17.24L377.12-13.52Q375.32-13.60 373.86-12.80Q372.40-12 371.58-10.58Q370.76-9.16 370.76-7.56L370.76-7.56L370.76 0L367.04 0L367.04-16.56L370.36-16.56L370.64-12.64Z M396.04-16.56L399.48-16.56L399.48 0L395.76 0L395.76-2.72Q394.88-1.56 393.20-0.58Q391.52 0.40 389.40 0.40L389.40 0.40Q387.04 0.40 385.14-0.62Q383.24-1.64 382.14-3.60Q381.04-5.56 381.04-8.28L381.04-8.28Q381.04-11 382.18-13.02Q383.32-15.04 385.26-16.14Q387.20-17.24 389.56-17.24L389.56-17.24Q391.68-17.24 393.24-16.32Q394.80-15.40 395.76-13.92L395.76-13.92L396.04-16.56ZM390.40-2.68Q392.44-2.68 393.90-3.82Q395.36-4.96 395.76-6.92L395.76-6.92L395.76-10.20Q395.28-11.96 393.76-13.06Q392.24-14.16 390.28-14.16L390.28-14.16Q388.80-14.16 387.54-13.44Q386.28-12.72 385.54-11.42Q384.80-10.12 384.80-8.48L384.80-8.48Q384.80-6.88 385.56-5.56Q386.32-4.24 387.60-3.46Q388.88-2.68 390.40-2.68L390.40-2.68Z M420.20-1.56Q419.08-0.64 417.54-0.12Q416.00 0.40 414.40 0.40L414.40 0.40Q411.72 0.40 409.66-0.68Q407.60-1.76 406.46-3.74Q405.32-5.72 405.32-8.32L405.32-8.32Q405.32-10.88 406.52-12.86Q407.72-14.84 409.72-15.92Q411.72-17 414.04-17L414.04-17Q417.84-17 420.32-14.92L420.32-14.92L418.44-12.48Q417.64-13.08 416.60-13.50Q415.56-13.92 414.36-13.92L414.36-13.92Q412.88-13.92 411.66-13.18Q410.44-12.44 409.74-11.16Q409.04-9.88 409.04-8.32L409.04-8.32Q409.04-6.76 409.78-5.48Q410.52-4.20 411.80-3.44Q413.08-2.68 414.72-2.68L414.72-2.68Q416.76-2.68 418.28-3.88L418.28-3.88L420.20-1.56Z M427.40-23.84L431.16-23.84L431.16-16.52L435.68-16.52L435.68-13.56L431.16-13.56L431.16 0L427.40 0L427.40-13.56L424.36-13.56L424.36-16.52L427.40-16.52L427.40-23.84Z M441.00-16.56L444.72-16.56L444.72 0L441.00 0L441.00-16.56ZM440.72-22.52Q440.72-23.40 441.40-24Q442.08-24.60 442.96-24.60L442.96-24.60Q443.84-24.60 444.50-24Q445.16-23.40 445.16-22.52L445.16-22.52Q445.16-21.64 444.50-21.04Q443.84-20.44 442.96-20.44L442.96-20.44Q442.08-20.44 441.40-21.04Q440.72-21.64 440.72-22.52L440.72-22.52Z M465.44-1.56Q464.32-0.64 462.78-0.12Q461.24 0.40 459.64 0.40L459.64 0.40Q456.96 0.40 454.90-0.68Q452.84-1.76 451.70-3.74Q450.56-5.72 450.56-8.32L450.56-8.32Q450.56-10.88 451.76-12.86Q452.96-14.84 454.96-15.92Q456.96-17 459.28-17L459.28-17Q463.08-17 465.56-14.92L465.56-14.92L463.68-12.48Q462.88-13.08 461.84-13.50Q460.80-13.92 459.60-13.92L459.60-13.92Q458.12-13.92 456.90-13.18Q455.68-12.44 454.98-11.16Q454.28-9.88 454.28-8.32L454.28-8.32Q454.28-6.76 455.02-5.48Q455.76-4.20 457.04-3.44Q458.32-2.68 459.96-2.68L459.96-2.68Q462.00-2.68 463.52-3.88L463.52-3.88L465.44-1.56Z M478.80-2.80Q480.88-2.80 482.84-4.24L482.84-4.24L484.56-1.48Q483.24-0.60 481.70-0.10Q480.16 0.40 478.72 0.40L478.72 0.40Q475.96 0.40 473.90-0.74Q471.84-1.88 470.72-3.88Q469.60-5.88 469.60-8.40L469.60-8.40Q469.60-10.84 470.82-12.86Q472.04-14.88 474.16-16.06Q476.28-17.24 478.80-17.24L478.80-17.24Q482.04-17.24 484.22-15.34Q486.40-13.44 487.20-10.04L487.20-10.04L474.08-5.44Q474.80-4.20 476.02-3.50Q477.24-2.80 478.80-2.80L478.80-2.80ZM478.52-14.28Q476.24-14.28 474.76-12.68Q473.28-11.08 473.28-8.60L473.28-8.60Q473.28-8 473.32-7.68L473.32-7.68L482.96-11.24Q482.36-12.60 481.26-13.44Q480.16-14.28 478.52-14.28L478.52-14.28Z"/></g>
</svg>
</g></svg></svg>