<svg version="1.1" preserveAspectRatio="none" xmlns="http://www.w3.org/2000/svg" width="500" height="500" viewBox="0 0 500 500"><rect width="100%" height="100%" fill="#FFA569" fill-opacity="1"/><svg viewBox="521.578 389.643 443.4406 207.9487" width="333" height="156.1582703523313" x="83.5px" y="171.9209px" xmlns="http://www.w3.org/2000/svg" xmlns:xlink="http://www.w3.org/1999/xlink" preserveAspectRatio="none"><defs></defs><style>.a0e3TXQnbxfillColor {fill:#DDDDDD;fill-opacity:0;}.aJqmuy15MzfillColor {fill:#DDDDDD;fill-opacity:0;}.companyName {fill:#FFFFFF;fill-opacity:1;}.icon1 {fill:#FFFFFF;fill-opacity:1;}.icon1-str {stroke:#FFFFFF;stroke-opacity:1;}.icon2 {fill:#D22626;fill-opacity:1;}.icon3 {fill:#393939;fill-opacity:1;}.icon3-str {stroke:#393939;stroke-opacity:1;}.text {fill:#FFFFFF;fill-opacity:1;}</style><g opacity="1" transform="rotate(0 604.4144 580.7917)">
<svg width="277.7679" height="16.8" x="604.4144" y="580.7917" version="1.1" preserveAspectRatio="none" viewBox="3.196 -30.2557 635.4630999999999 38.4375">
  <g transform="matrix(1 0 0 1 0 0)" class="text"><path id="id-6izo4zJp25" d="M12.61 0L12.61 0L3.20 0L3.20-29.09L12.91-29.09Q17.19-29.09 20.26-27.35Q23.32-25.61 24.96-22.37Q26.61-19.12 26.61-14.59L26.61-14.59Q26.61-10.04 24.95-6.78Q23.30-3.51 20.17-1.75Q17.05 0 12.61 0ZM7.59-25.26L7.59-3.84L12.37-3.84Q15.70-3.84 17.90-5.09Q20.10-6.35 21.19-8.74Q22.29-11.14 22.29-14.59L22.29-14.59Q22.29-18.01 21.20-20.40Q20.11-22.78 17.97-24.02Q15.82-25.26 12.64-25.26L12.64-25.26L7.59-25.26Z M47.12 0.44L47.12 0.44Q43.90 0.44 41.58-0.94Q39.25-2.33 38.00-4.85Q36.74-7.37 36.74-10.77L36.74-10.77Q36.74-14.12 38.00-16.68Q39.25-19.23 41.52-20.67Q43.78-22.10 46.82-22.10L46.82-22.10Q48.67-22.10 50.40-21.49Q52.14-20.88 53.51-19.57Q54.89-18.27 55.69-16.19Q56.48-14.11 56.48-11.14L56.48-11.14L56.48-9.63L39.14-9.63L39.14-12.81L52.32-12.81Q52.32-14.49 51.64-15.79Q50.96-17.09 49.73-17.84Q48.50-18.59 46.85-18.59L46.85-18.59Q45.06-18.59 43.73-17.72Q42.41-16.85 41.69-15.45Q40.97-14.05 40.97-12.41L40.97-12.41L40.97-9.93Q40.97-7.74 41.75-6.21Q42.52-4.67 43.91-3.87Q45.30-3.07 47.16-3.07L47.16-3.07Q48.37-3.07 49.37-3.42Q50.36-3.76 51.09-4.46Q51.81-5.16 52.19-6.18L52.19-6.18L56.21-5.45Q55.73-3.68 54.49-2.35Q53.24-1.02 51.38-0.29Q49.51 0.44 47.12 0.44Z M71.46 0L67.21 0L67.21-21.82L71.29-21.82L71.29-18.27L71.56-18.27Q72.24-20.07 73.79-21.09Q75.34-22.10 77.50-22.10L77.50-22.10Q79.68-22.10 81.17-21.08Q82.65-20.06 83.36-18.27L83.36-18.27L83.59-18.27Q84.37-20.01 86.08-21.06Q87.78-22.10 90.14-22.10L90.14-22.10Q93.11-22.10 94.99-20.24Q96.87-18.38 96.87-14.63L96.87-14.63L96.87 0L92.63 0L92.63-14.23Q92.63-16.45 91.42-17.44Q90.21-18.44 88.53-18.44L88.53-18.44Q86.46-18.44 85.31-17.17Q84.16-15.89 84.16-13.91L84.16-13.91L84.16 0L79.93 0L79.93-14.50Q79.93-16.28 78.82-17.36Q77.71-18.44 75.93-18.44L75.93-18.44Q74.73-18.44 73.71-17.81Q72.70-17.17 72.08-16.05Q71.46-14.93 71.46-13.45L71.46-13.45L71.46 0Z M117.74 0.44L117.74 0.44Q114.68 0.44 112.39-0.97Q110.10-2.37 108.84-4.90Q107.57-7.43 107.57-10.81L107.57-10.81Q107.57-14.20 108.84-16.75Q110.10-19.29 112.39-20.70Q114.68-22.10 117.74-22.10L117.74-22.10Q120.81-22.10 123.10-20.70Q125.39-19.29 126.65-16.75Q127.91-14.20 127.91-10.81L127.91-10.81Q127.91-7.43 126.65-4.90Q125.39-2.37 123.10-0.97Q120.81 0.44 117.74 0.44ZM117.76-3.13L117.76-3.13Q119.75-3.13 121.05-4.18Q122.36-5.23 122.99-6.97Q123.63-8.72 123.63-10.82L123.63-10.82Q123.63-12.91 122.99-14.67Q122.36-16.42 121.05-17.49Q119.75-18.55 117.76-18.55L117.76-18.55Q115.76-18.55 114.44-17.49Q113.13-16.42 112.50-14.67Q111.86-12.91 111.86-10.82L111.86-10.82Q111.86-8.72 112.50-6.97Q113.13-5.23 114.44-4.18Q115.76-3.13 117.76-3.13Z M159.97 0L155.58 0L155.58-29.09L165.95-29.09Q169.35-29.09 171.58-27.86Q173.81-26.62 174.91-24.48Q176.02-22.34 176.02-19.67L176.02-19.67Q176.02-16.99 174.91-14.85Q173.79-12.71 171.56-11.47Q169.32-10.23 165.94-10.23L165.94-10.23L158.81-10.23L158.81-13.95L165.54-13.95Q167.68-13.95 169.02-14.69Q170.36-15.44 170.98-16.73Q171.61-18.03 171.61-19.67L171.61-19.67Q171.61-21.32 170.98-22.60Q170.36-23.88 169.01-24.60Q167.67-25.33 165.48-25.33L165.48-25.33L159.97-25.33L159.97 0Z M191.06 0L186.81 0L186.81-21.82L190.91-21.82L190.91-18.35L191.14-18.35Q191.74-20.11 193.25-21.13Q194.76-22.14 196.68-22.14L196.68-22.14Q197.08-22.14 197.63-22.12Q198.17-22.09 198.49-22.05L198.49-22.05L198.49-17.98Q198.23-18.05 197.58-18.15Q196.92-18.24 196.27-18.24L196.27-18.24Q194.76-18.24 193.59-17.61Q192.42-16.97 191.74-15.86Q191.06-14.74 191.06-13.32L191.06-13.32L191.06 0Z M216.57 0.44L216.57 0.44Q213.51 0.44 211.22-0.97Q208.93-2.37 207.67-4.90Q206.40-7.43 206.40-10.81L206.40-10.81Q206.40-14.20 207.67-16.75Q208.93-19.29 211.22-20.70Q213.51-22.10 216.57-22.10L216.57-22.10Q219.64-22.10 221.93-20.70Q224.22-19.29 225.48-16.75Q226.74-14.20 226.74-10.81L226.74-10.81Q226.74-7.43 225.48-4.90Q224.22-2.37 221.93-0.97Q219.64 0.44 216.57 0.44ZM216.59-3.13L216.59-3.13Q218.58-3.13 219.88-4.18Q221.19-5.23 221.82-6.97Q222.45-8.72 222.45-10.82L222.45-10.82Q222.45-12.91 221.82-14.67Q221.19-16.42 219.88-17.49Q218.58-18.55 216.59-18.55L216.59-18.55Q214.59-18.55 213.27-17.49Q211.96-16.42 211.33-14.67Q210.69-12.91 210.69-10.82L210.69-10.82Q210.69-8.72 211.33-6.97Q211.96-5.23 213.27-4.18Q214.59-3.13 216.59-3.13Z M237.47 1.39L237.47-21.82L241.72-21.82L241.72 1.42Q241.72 3.61 240.93 5.11Q240.14 6.62 238.60 7.40Q237.06 8.18 234.80 8.18L234.80 8.18Q234.58 8.18 234.37 8.18Q234.16 8.18 233.94 8.17L233.94 8.17L233.94 4.52Q234.14 4.52 234.29 4.52Q234.43 4.52 234.62 4.52L234.62 4.52Q236.13 4.52 236.80 3.71Q237.47 2.91 237.47 1.39L237.47 1.39ZM239.58-25.18L239.58-25.18Q238.47-25.18 237.68-25.93Q236.89-26.68 236.89-27.71L236.89-27.71Q236.89-28.76 237.68-29.51Q238.47-30.26 239.58-30.26L239.58-30.26Q240.68-30.26 241.47-29.51Q242.26-28.76 242.26-27.71L242.26-27.71Q242.26-26.68 241.47-25.93Q240.68-25.18 239.58-25.18Z M262.84 0.44L262.84 0.44Q259.61 0.44 257.29-0.94Q254.97-2.33 253.71-4.85Q252.45-7.37 252.45-10.77L252.45-10.77Q252.45-14.12 253.71-16.68Q254.97-19.23 257.23-20.67Q259.50-22.10 262.54-22.10L262.54-22.10Q264.38-22.10 266.12-21.49Q267.85-20.88 269.23-19.57Q270.61-18.27 271.40-16.19Q272.20-14.11 272.20-11.14L272.20-11.14L272.20-9.63L254.85-9.63L254.85-12.81L268.03-12.81Q268.03-14.49 267.35-15.79Q266.67-17.09 265.44-17.84Q264.21-18.59 262.57-18.59L262.57-18.59Q260.78-18.59 259.45-17.72Q258.12-16.85 257.40-15.45Q256.68-14.05 256.68-12.41L256.68-12.41L256.68-9.93Q256.68-7.74 257.46-6.21Q258.23-4.67 259.63-3.87Q261.02-3.07 262.88-3.07L262.88-3.07Q264.09-3.07 265.08-3.42Q266.07-3.76 266.80-4.46Q267.52-5.16 267.91-6.18L267.91-6.18L271.93-5.45Q271.44-3.68 270.20-2.35Q268.96-1.02 267.09-0.29Q265.22 0.44 262.84 0.44Z M292.12 0.44L292.12 0.44Q288.95 0.44 286.67-1.00Q284.39-2.44 283.17-4.99Q281.95-7.53 281.95-10.81L281.95-10.81Q281.95-14.13 283.20-16.68Q284.45-19.23 286.72-20.67Q288.99-22.10 292.07-22.10L292.07-22.10Q294.56-22.10 296.51-21.19Q298.45-20.27 299.65-18.62Q300.85-16.97 301.08-14.77L301.08-14.77L296.95-14.77Q296.61-16.31 295.39-17.41Q294.18-18.52 292.14-18.52L292.14-18.52Q290.37-18.52 289.04-17.59Q287.71-16.66 286.97-14.95Q286.24-13.24 286.24-10.91L286.24-10.91Q286.24-8.52 286.96-6.79Q287.68-5.06 289.01-4.11Q290.34-3.15 292.14-3.15L292.14-3.15Q293.35-3.15 294.34-3.60Q295.33-4.05 296.00-4.89Q296.68-5.72 296.95-6.90L296.95-6.90L301.08-6.90Q300.85-4.79 299.70-3.13Q298.55-1.46 296.63-0.51Q294.70 0.44 292.12 0.44Z M309.91-21.82L321.82-21.82L321.82-18.41L309.91-18.41L309.91-21.82ZM313.10-5.53L313.10-27.05L317.35-27.05L317.35-6.41Q317.35-5.17 317.72-4.55Q318.09-3.93 318.68-3.71Q319.27-3.49 319.96-3.49L319.96-3.49Q320.47-3.49 320.86-3.57Q321.24-3.64 321.45-3.68L321.45-3.68L322.22-0.17Q321.85-0.03 321.17 0.12Q320.49 0.27 319.47 0.28L319.47 0.28Q317.79 0.31 316.34-0.31Q314.89-0.94 314.00-2.24Q313.10-3.55 313.10-5.53L313.10-5.53Z M353.84 0L349.45 0L349.45-29.09L367.49-29.09L367.49-25.31L353.84-25.31L353.84-16.45L366.20-16.45L366.20-12.68L353.84-12.68L353.84 0Z M386.14 0.44L386.14 0.44Q383.08 0.44 380.79-0.97Q378.50-2.37 377.24-4.90Q375.97-7.43 375.97-10.81L375.97-10.81Q375.97-14.20 377.24-16.75Q378.50-19.29 380.79-20.70Q383.08-22.10 386.14-22.10L386.14-22.10Q389.21-22.10 391.50-20.70Q393.79-19.29 395.05-16.75Q396.32-14.20 396.32-10.81L396.32-10.81Q396.32-7.43 395.05-4.90Q393.79-2.37 391.50-0.97Q389.21 0.44 386.14 0.44ZM386.16-3.13L386.16-3.13Q388.15-3.13 389.45-4.18Q390.76-5.23 391.39-6.97Q392.03-8.72 392.03-10.82L392.03-10.82Q392.03-12.91 391.39-14.67Q390.76-16.42 389.45-17.49Q388.15-18.55 386.16-18.55L386.16-18.55Q384.16-18.55 382.84-17.49Q381.53-16.42 380.90-14.67Q380.26-12.91 380.26-10.82L380.26-10.82Q380.26-8.72 380.90-6.97Q381.53-5.23 382.84-4.18Q384.16-3.13 386.16-3.13Z M411.29 0L407.05 0L407.05-21.82L411.15-21.82L411.15-18.35L411.38-18.35Q411.97-20.11 413.49-21.13Q415.00-22.14 416.92-22.14L416.92-22.14Q417.32-22.14 417.86-22.12Q418.41-22.09 418.72-22.05L418.72-22.05L418.72-17.98Q418.47-18.05 417.81-18.15Q417.16-18.24 416.51-18.24L416.51-18.24Q415.00-18.24 413.83-17.61Q412.66-16.97 411.97-15.86Q411.29-14.74 411.29-13.32L411.29-13.32L411.29 0Z M449.26 8.18L445.01 8.18L445.01-21.82L449.16-21.82L449.16-18.28L449.51-18.28Q449.88-18.96 450.58-19.86Q451.28-20.75 452.51-21.43Q453.75-22.10 455.78-22.10L455.78-22.10Q458.42-22.10 460.49-20.77Q462.57-19.43 463.75-16.92Q464.94-14.40 464.94-10.87L464.94-10.87Q464.94-7.33 463.76-4.81Q462.58-2.29 460.52-0.93Q458.46 0.43 455.82 0.43L455.82 0.43Q453.83 0.43 452.58-0.24Q451.32-0.91 450.61-1.80Q449.90-2.70 449.51-3.39L449.51-3.39L449.26-3.39L449.26 8.18ZM449.17-10.91L449.17-10.91Q449.17-8.61 449.84-6.88Q450.51-5.14 451.77-4.17Q453.04-3.20 454.87-3.20L454.87-3.20Q456.77-3.20 458.05-4.21Q459.33-5.23 459.99-6.97Q460.65-8.72 460.65-10.91L460.65-10.91Q460.65-13.07 460.00-14.79Q459.36-16.51 458.07-17.50Q456.79-18.49 454.87-18.49L454.87-18.49Q453.02-18.49 451.75-17.54Q450.48-16.59 449.83-14.89Q449.17-13.18 449.17-10.91Z M479.95 0L475.70 0L475.70-21.82L479.80-21.82L479.80-18.35L480.03-18.35Q480.63-20.11 482.14-21.13Q483.65-22.14 485.57-22.14L485.57-22.14Q485.97-22.14 486.52-22.12Q487.06-22.09 487.38-22.05L487.38-22.05L487.38-17.98Q487.12-18.05 486.47-18.15Q485.81-18.24 485.16-18.24L485.16-18.24Q483.65-18.24 482.48-17.61Q481.31-16.97 480.63-15.86Q479.95-14.74 479.95-13.32L479.95-13.32L479.95 0Z M503.22 0.48L503.22 0.48Q501.14 0.48 499.47-0.29Q497.79-1.07 496.82-2.54Q495.85-4.02 495.85-6.16L495.85-6.16Q495.85-8.01 496.56-9.20Q497.27-10.40 498.47-11.09Q499.68-11.79 501.17-12.14Q502.66-12.50 504.21-12.68L504.21-12.68Q506.17-12.91 507.39-13.06Q508.62-13.21 509.17-13.55Q509.72-13.89 509.72-14.66L509.72-14.66L509.72-14.76Q509.72-16.62 508.68-17.64Q507.64-18.66 505.58-18.66L505.58-18.66Q503.43-18.66 502.20-17.72Q500.97-16.78 500.51-15.63L500.51-15.63L496.51-16.53Q497.22-18.52 498.60-19.75Q499.97-20.98 501.76-21.54Q503.55-22.10 505.52-22.10L505.52-22.10Q506.83-22.10 508.30-21.80Q509.77-21.49 511.05-20.68Q512.34-19.87 513.16-18.37Q513.99-16.88 513.99-14.49L513.99-14.49L513.99 0L509.84 0L509.84-2.98L509.67-2.98Q509.26-2.16 508.43-1.36Q507.61-0.57 506.32-0.04Q505.02 0.48 503.22 0.48ZM504.14-2.93L504.14-2.93Q505.90-2.93 507.16-3.62Q508.42-4.32 509.08-5.45Q509.74-6.58 509.74-7.87L509.74-7.87L509.74-10.68Q509.51-10.45 508.87-10.26Q508.22-10.07 507.39-9.94Q506.57-9.80 505.79-9.69Q505.01-9.59 504.48-9.52L504.48-9.52Q503.25-9.36 502.23-8.99Q501.22-8.62 500.61-7.93Q500.01-7.24 500.01-6.11L500.01-6.11Q500.01-4.53 501.17-3.73Q502.34-2.93 504.14-2.93Z M534.83 0.44L534.83 0.44Q531.66 0.44 529.38-1.00Q527.10-2.44 525.88-4.99Q524.66-7.53 524.66-10.81L524.66-10.81Q524.66-14.13 525.91-16.68Q527.16-19.23 529.43-20.67Q531.70-22.10 534.79-22.10L534.79-22.10Q537.27-22.10 539.22-21.19Q541.16-20.27 542.37-18.62Q543.57-16.97 543.79-14.77L543.79-14.77L539.66-14.77Q539.32-16.31 538.10-17.41Q536.89-18.52 534.86-18.52L534.86-18.52Q533.08-18.52 531.75-17.59Q530.43-16.66 529.69-14.95Q528.95-13.24 528.95-10.91L528.95-10.91Q528.95-8.52 529.67-6.79Q530.40-5.06 531.73-4.11Q533.05-3.15 534.86-3.15L534.86-3.15Q536.07-3.15 537.05-3.60Q538.04-4.05 538.71-4.89Q539.39-5.72 539.66-6.90L539.66-6.90L543.79-6.90Q543.57-4.79 542.41-3.13Q541.26-1.46 539.34-0.51Q537.41 0.44 534.83 0.44Z M552.62-21.82L564.54-21.82L564.54-18.41L552.62-18.41L552.62-21.82ZM555.82-5.53L555.82-27.05L560.06-27.05L560.06-6.41Q560.06-5.17 560.43-4.55Q560.80-3.93 561.39-3.71Q561.98-3.49 562.68-3.49L562.68-3.49Q563.19-3.49 563.57-3.57Q563.95-3.64 564.17-3.68L564.17-3.68L564.93-0.17Q564.57-0.03 563.88 0.12Q563.20 0.27 562.18 0.28L562.18 0.28Q560.50 0.31 559.05-0.31Q557.61-0.94 556.71-2.24Q555.82-3.55 555.82-5.53L555.82-5.53Z M579.47 0L575.22 0L575.22-21.82L579.47-21.82L579.47 0ZM577.37-25.18L577.37-25.18Q576.26-25.18 575.47-25.93Q574.68-26.68 574.68-27.71L574.68-27.71Q574.68-28.76 575.47-29.51Q576.26-30.26 577.37-30.26L577.37-30.26Q578.48-30.26 579.27-29.51Q580.05-28.76 580.05-27.71L580.05-27.71Q580.05-26.68 579.27-25.93Q578.48-25.18 577.37-25.18Z M600.37 0.44L600.37 0.44Q597.20 0.44 594.92-1.00Q592.64-2.44 591.42-4.99Q590.20-7.53 590.20-10.81L590.20-10.81Q590.20-14.13 591.45-16.68Q592.70-19.23 594.97-20.67Q597.25-22.10 600.33-22.10L600.33-22.10Q602.82-22.10 604.76-21.19Q606.71-20.27 607.91-18.62Q609.11-16.97 609.34-14.77L609.34-14.77L605.20-14.77Q604.86-16.31 603.65-17.41Q602.43-18.52 600.40-18.52L600.40-18.52Q598.63-18.52 597.30-17.59Q595.97-16.66 595.23-14.95Q594.49-13.24 594.49-10.91L594.49-10.91Q594.49-8.52 595.22-6.79Q595.94-5.06 597.27-4.11Q598.60-3.15 600.40-3.15L600.40-3.15Q601.61-3.15 602.60-3.60Q603.58-4.05 604.26-4.89Q604.93-5.72 605.20-6.90L605.20-6.90L609.34-6.90Q609.11-4.79 607.96-3.13Q606.81-1.46 604.88-0.51Q602.96 0.44 600.37 0.44Z M629.30 0.44L629.30 0.44Q626.07 0.44 623.75-0.94Q621.43-2.33 620.17-4.85Q618.91-7.37 618.91-10.77L618.91-10.77Q618.91-14.12 620.17-16.68Q621.43-19.23 623.69-20.67Q625.96-22.10 629-22.10L629-22.10Q630.85-22.10 632.58-21.49Q634.31-20.88 635.69-19.57Q637.07-18.27 637.86-16.19Q638.66-14.11 638.66-11.14L638.66-11.14L638.66-9.63L621.32-9.63L621.32-12.81L634.50-12.81Q634.50-14.49 633.82-15.79Q633.13-17.09 631.90-17.84Q630.68-18.59 629.03-18.59L629.03-18.59Q627.24-18.59 625.91-17.72Q624.58-16.85 623.87-15.45Q623.15-14.05 623.15-12.41L623.15-12.41L623.15-9.93Q623.15-7.74 623.92-6.21Q624.70-4.67 626.09-3.87Q627.48-3.07 629.34-3.07L629.34-3.07Q630.55-3.07 631.54-3.42Q632.54-3.76 633.26-4.46Q633.99-5.16 634.37-6.18L634.37-6.18L638.39-5.45Q637.91-3.68 636.66-2.35Q635.42-1.02 633.55-0.29Q631.68 0.44 629.30 0.44Z"/></g>
</svg>
</g><g opacity="1" transform="rotate(0 556.378 492.7917)">
<svg width="373.8406" height="60" x="556.378" y="492.7917" version="1.1" preserveAspectRatio="none" viewBox="2.16 -34.92 283.11999999999995 45.44">
  <g transform="matrix(1 0 0 1 0 0)" class="companyName"><path id="id-D6z1nYkh12" d="M22.16-16.92Q25.24-16.08 27.06-13.98Q28.88-11.88 28.88-9.16L28.88-9.16Q28.88-6.64 26.90-4.42Q24.92-2.20 21.94-0.88Q18.96 0.44 16.28 0.44L16.28 0.44Q14.28 0.44 12.36 0.24L12.36 0.24Q9.16 0.04 7.40 0.04L7.40 0.04L2.52 0.04L2.52-1L6.28-3.96L6.28-28.64L2.16-30.04L2.84-31.44L7.36-31.44Q11-31.44 14.52-31.68L14.52-31.68Q17.24-31.84 18.52-31.84L18.52-31.84Q21.12-31.84 23.12-30.80Q25.12-29.76 26.20-27.98Q27.28-26.20 27.28-24L27.28-24Q27.28-22 25.86-20.16Q24.44-18.32 22.20-17L22.20-17L22.16-16.92ZM22.32-22.08Q22.32-25.28 20.58-27.34Q18.84-29.40 15.40-29.40L15.40-29.40Q12.80-29.40 10.76-27.80L10.76-27.80L10.76-17.20L16.76-17.20Q19.36-17.20 20.82-18.48Q22.28-19.76 22.28-22.08L22.28-22.08L22.32-22.08ZM17.36-2.28Q20.32-2.28 22.10-3.78Q23.88-5.28 23.88-7.76L23.88-7.76Q23.88-10.96 22-12.92Q20.12-14.88 16.40-15L16.40-15Q16.12-14.96 15.64-14.96L15.64-14.96L10.76-14.96L10.76-3.36Q13.48-2.28 17.40-2.28L17.40-2.28L17.36-2.28Z M54.92-1.40L54.20 0L46.92 0L46.92-3.48L42.40 0.08Q41.60 0.40 40.40 0.40L40.40 0.40Q37.04 0.40 35.54-1.28Q34.04-2.96 34.04-5.32L34.04-5.32Q34.04-6.76 35.08-8.14Q36.12-9.52 38.08-10.76L38.08-10.76L46.92-10.76L46.92-13.68Q46.92-16.36 45.50-17.44Q44.08-18.52 41.60-18.52L41.60-18.52Q39.16-18.52 35.76-15.36L35.76-15.36L34.56-16.72L40.36-21.32Q41.92-21.60 44.04-21.60L44.04-21.60Q47.48-21.60 49.40-19.86Q51.32-18.12 51.32-14.84L51.32-14.84L51.32-2.80L54.92-1.40ZM41.52-2.60Q44.04-2.60 46.92-4.96L46.92-4.96L46.92-9.32L39.72-9.32Q39.12-8.64 38.90-7.96Q38.68-7.28 38.68-6.44L38.68-6.44Q38.68-4.88 39.46-3.74Q40.24-2.60 41.52-2.60L41.52-2.60Z M83.48-1.36L82.76 0.04L75.48 0.04L75.48-13.60Q75.48-15.88 74.76-16.76Q74.04-17.64 72.24-17.64L72.24-17.64Q70.84-17.64 69.50-17.14Q68.16-16.64 66.28-15.12L66.28-15.12L66.28-2.80L69.88-1.36L69.16 0.04L58.32 0.04L58.32-1L61.88-3.76L61.88-15.52L58.32-17.56L58.32-18.60L64.84-21.96L66.12-16.64L71.96-21.28Q72.80-21.60 74.08-21.60L74.08-21.60Q76.76-21.60 78.32-19.94Q79.88-18.28 79.88-15.44L79.88-15.44L79.88-2.84L83.48-1.36Z M108.72-18.60L103.88-18.60Q105.12-16.92 105.12-14.80L105.12-14.80Q105.12-13 104.12-11.30Q103.12-9.60 101.44-8.30Q99.76-7 97.76-6.44L97.76-6.44Q96.72-5.40 96.72-4.20L96.72-4.20Q96.72-3.52 97.74-2.96Q98.76-2.40 101-1.52L101-1.52Q103.92-0.40 105.44 0.52Q106.96 1.44 106.96 2.80L106.96 2.80Q106.96 4 105.42 5.88Q103.88 7.76 101.62 9.14Q99.36 10.52 97.28 10.52L97.28 10.52Q95.08 10.52 92.08 9.76Q89.08 9 87.08 8.24L87.08 8.24L87.08 2.28L88.40 2.28Q90.72 5.08 93.10 6.52Q95.48 7.96 98.48 7.96L98.48 7.96Q99.60 7.96 100.52 7.50Q101.44 7.04 101.96 6.32Q102.48 5.60 102.48 4.96L102.48 4.96Q102.48 3.88 101.14 3.04Q99.80 2.20 97.20 1.12L97.20 1.12Q94.64 0.08 93.42-0.66Q92.20-1.40 92.20-2.40L92.20-2.40Q92.20-3.36 93.44-4.36Q94.68-5.36 96.36-6.12L96.36-6.12Q95.72-6 95.04-6L95.04-6Q93-6 91.28-6.92Q89.56-7.84 88.58-9.40Q87.60-10.96 87.60-12.80L87.60-12.80Q87.60-15 89.08-17.04Q90.56-19.08 92.92-20.34Q95.28-21.60 97.76-21.60L97.76-21.60Q100.48-21.60 102.52-20L102.52-20L108.76-20L108.72-18.60ZM97.28-9.16Q101.16-9.16 101.16-12.92L101.16-12.92Q101.16-15.40 99.56-16.96Q97.96-18.52 95.36-18.52L95.36-18.52Q93.48-18.52 92.50-17.60Q91.52-16.68 91.52-14.80L91.52-14.80Q91.52-12.28 93.12-10.72Q94.72-9.16 97.28-9.16L97.28-9.16Z M123.24-1.36L122.52 0.04L111.68 0.04L111.68-1L115.24-3.76L115.24-28.92L111.68-31.44L111.68-32.48L118.32-34.92L119.64-34.92L119.64-2.84L123.24-1.36Z M148.16-1.40L147.44 0L140.16 0L140.16-3.48L135.64 0.08Q134.84 0.40 133.64 0.40L133.64 0.40Q130.28 0.40 128.78-1.28Q127.28-2.96 127.28-5.32L127.28-5.32Q127.28-6.76 128.32-8.14Q129.36-9.52 131.32-10.76L131.32-10.76L140.16-10.76L140.16-13.68Q140.16-16.36 138.74-17.44Q137.32-18.52 134.84-18.52L134.84-18.52Q132.40-18.52 129-15.36L129-15.36L127.80-16.72L133.60-21.32Q135.16-21.60 137.28-21.60L137.28-21.60Q140.72-21.60 142.64-19.86Q144.56-18.12 144.56-14.84L144.56-14.84L144.56-2.80L148.16-1.40ZM134.76-2.60Q137.28-2.60 140.16-4.96L140.16-4.96L140.16-9.32L132.96-9.32Q132.36-8.64 132.14-7.96Q131.92-7.28 131.92-6.44L131.92-6.44Q131.92-4.88 132.70-3.74Q133.48-2.60 134.76-2.60L134.76-2.60Z M182.76-16.92Q185.84-16.08 187.66-13.98Q189.48-11.88 189.48-9.16L189.48-9.16Q189.48-6.64 187.50-4.42Q185.52-2.20 182.54-0.88Q179.56 0.44 176.88 0.44L176.88 0.44Q174.88 0.44 172.96 0.24L172.96 0.24Q169.76 0.04 168.00 0.04L168.00 0.04L163.12 0.04L163.12-1L166.88-3.96L166.88-28.64L162.76-30.04L163.44-31.44L167.96-31.44Q171.60-31.44 175.12-31.68L175.12-31.68Q177.84-31.84 179.12-31.84L179.12-31.84Q181.72-31.84 183.72-30.80Q185.72-29.76 186.80-27.98Q187.88-26.20 187.88-24L187.88-24Q187.88-22 186.46-20.16Q185.04-18.32 182.80-17L182.80-17L182.76-16.92ZM182.92-22.08Q182.92-25.28 181.18-27.34Q179.44-29.40 176.00-29.40L176.00-29.40Q173.40-29.40 171.36-27.80L171.36-27.80L171.36-17.20L177.36-17.20Q179.96-17.20 181.42-18.48Q182.88-19.76 182.88-22.08L182.88-22.08L182.92-22.08ZM177.96-2.28Q180.92-2.28 182.70-3.78Q184.48-5.28 184.48-7.76L184.48-7.76Q184.48-10.96 182.60-12.92Q180.72-14.88 177.00-15L177.00-15Q176.72-14.96 176.24-14.96L176.24-14.96L171.36-14.96L171.36-3.36Q174.08-2.28 178.00-2.28L178.00-2.28L177.96-2.28Z M215.52-1.40L214.80 0L207.52 0L207.52-3.48L203.00 0.08Q202.20 0.40 201.00 0.40L201.00 0.40Q197.64 0.40 196.14-1.28Q194.64-2.96 194.64-5.32L194.64-5.32Q194.64-6.76 195.68-8.14Q196.72-9.52 198.68-10.76L198.68-10.76L207.52-10.76L207.52-13.68Q207.52-16.36 206.10-17.44Q204.68-18.52 202.20-18.52L202.20-18.52Q199.76-18.52 196.36-15.36L196.36-15.36L195.16-16.72L200.96-21.32Q202.52-21.60 204.64-21.60L204.64-21.60Q208.08-21.60 210.00-19.86Q211.92-18.12 211.92-14.84L211.92-14.84L211.92-2.80L215.52-1.40ZM202.12-2.60Q204.64-2.60 207.52-4.96L207.52-4.96L207.52-9.32L200.32-9.32Q199.72-8.64 199.50-7.96Q199.28-7.28 199.28-6.44L199.28-6.44Q199.28-4.88 200.06-3.74Q200.84-2.60 202.12-2.60L202.12-2.60Z M224.40-4.40L234.64-4.40L236.36-7.64L237.36-7.28L237.36 0.72L235.36 0L219.44 0L219.44-1.32L233.08-16.80L222.60-16.80L221.00-13.96L220.00-14.32L220.00-21.92L222.00-21.20L237.92-21.20L237.92-19.88L224.40-4.40Z M264.16-1.40L263.44 0L256.16 0L256.16-3.48L251.64 0.08Q250.84 0.40 249.64 0.40L249.64 0.40Q246.28 0.40 244.78-1.28Q243.28-2.96 243.28-5.32L243.28-5.32Q243.28-6.76 244.32-8.14Q245.36-9.52 247.32-10.76L247.32-10.76L256.16-10.76L256.16-13.68Q256.16-16.36 254.74-17.44Q253.32-18.52 250.84-18.52L250.84-18.52Q248.40-18.52 245.00-15.36L245.00-15.36L243.80-16.72L249.60-21.32Q251.16-21.60 253.28-21.60L253.28-21.60Q256.72-21.60 258.64-19.86Q260.56-18.12 260.56-14.84L260.56-14.84L260.56-2.80L264.16-1.40ZM250.76-2.60Q253.28-2.60 256.16-4.96L256.16-4.96L256.16-9.32L248.96-9.32Q248.36-8.64 248.14-7.96Q247.92-7.28 247.92-6.44L247.92-6.44Q247.92-4.88 248.70-3.74Q249.48-2.60 250.76-2.60L250.76-2.60Z M281.76-21.56Q282.88-21.56 283.80-20.88Q284.72-20.20 285.28-19L285.28-19L282.84-15.96L281.52-15.96Q281.36-16.84 280.94-17.24Q280.52-17.64 279.80-17.64L279.80-17.64Q278.84-17.64 277.84-17.16Q276.84-16.68 275.52-15.24L275.52-15.24L275.52-3.08L281.00-1.36L280.32 0.04L267.56 0.04L267.56-1L271.12-3.76L271.12-15.52L267.56-17.56L267.56-18.60L274.08-21.96L275.28-16.92L279.52-21.28Q280.40-21.60 281.80-21.60L281.80-21.60L281.76-21.56Z"/></g>
</svg>
</g><g opacity="1" transform="rotate(0 668.2983 389.643)">
<svg width="150" height="73.1487" x="668.2983" y="389.643" version="1.1" preserveAspectRatio="none" viewBox="710.5001831054688 15717 58580 28567">
  <g transform="matrix(1 0 0 1 0 0)" class="icon1"><defs></defs><g><path class="fil0" d="M29559 29986c40,43 81,88 123,133 98,106 208,226 307,335l106 -115c110,-119 222,-239 326,-349 -96,-98 -199,-206 -297,-308 -46,-48 -92,-96 -135,-142 -39,42 -81,85 -123,129 -100,104 -208,216 -307,318zm-464 673c-155,-168 -299,-322 -373,-398 -152,-155 -153,-404 0,-559 115,-118 355,-363 569,-587 61,-63 118,-124 169,-177 -398,-533 -767,-1032 -1103,-1503 -634,534 -1302,1028 -1965,1519 -297,220 -593,439 -884,660 291,221 587,440 884,660 784,580 1576,1166 2308,1815 240,-329 494,-672 762,-1030 -101,-111 -232,-253 -367,-399zm1428 394c291,336 572,675 842,1017 744,-670 1543,-1268 2330,-1858 267,-200 532,-399 793,-599 -261,-200 -526,-399 -793,-599 -663,-497 -1334,-1000 -1975,-1547 -376,497 -776,990 -1197,1476 53,56 113,119 176,184 209,218 438,453 562,579 152,155 153,404 0,559 -140,142 -359,375 -578,613 -54,59 -108,117 -160,174zm1330 1653l72 97c525,713 1001,1431 1417,2143 670,1147 1339,2421 1582,3722 252,1353 44,2707 -1084,3933 -104,114 -212,221 -323,323 -987,907 -2218,1360 -3450,1360 -1232,0 -2464,-453 -3450,-1360 -111,-102 -219,-210 -323,-323 -1128,-1227 -1336,-2581 -1084,-3933 243,-1300 911,-2575 1582,-3722 364,-623 773,-1249 1228,-1904 69,-99 140,-200 212,-302 -727,-652 -1524,-1242 -2314,-1826 -356,-264 -711,-526 -1058,-793 -626,505 -1209,1031 -1702,1612 -31,37 -63,75 -93,112 242,337 466,675 668,1009 204,337 393,681 564,1028 312,632 622,1336 736,2060 121,770 19,1543 -528,2249 -151,195 -319,362 -497,500 -426,330 -915,496 -1407,496l0 2c-490,0 -979,-166 -1407,-497 -178,-138 -346,-305 -497,-500 -547,-706 -649,-1479 -528,-2249 114,-724 425,-1428 736,-2060 218,-442 453,-901 719,-1348 139,-234 286,-465 443,-690 -337,-433 -698,-849 -1076,-1236 -158,-162 -319,-319 -482,-470 -185,155 -374,305 -565,448 -1761,1319 -4455,2314 -6979,2354 -1977,31 -3858,-517 -5143,-1936 -211,148 -417,301 -619,451 -1195,885 -2288,1695 -3915,1385 -794,-151 -1398,-463 -1822,-873 -436,-423 -679,-946 -740,-1509 -60,-548 55,-1128 331,-1682 355,-711 979,-1384 1846,-1888 8679,-5050 15783,732 16912,1650 60,49 101,83 112,90 195,140 388,290 580,448 252,-235 498,-480 735,-735 289,-310 564,-632 822,-961 -156,-224 -302,-454 -440,-686 -265,-448 -501,-907 -719,-1348 -312,-632 -622,-1336 -736,-2060 -121,-770 -19,-1543 528,-2249 151,-195 319,-362 497,-500 428,-331 916,-497 1407,-497l0 2c492,0 980,165 1407,496 178,138 346,305 497,500 547,706 649,1479 528,2249 -114,724 -425,1428 -736,2060 -119,241 -252,490 -399,745 -143,248 -295,496 -457,741 -121,184 -247,367 -378,548 31,39 63,77 95,115 493,580 1076,1107 1702,1612 347,-267 702,-529 1058,-793 670,-496 1346,-996 1979,-1534 -406,-591 -774,-1160 -1106,-1727 -670,-1147 -1339,-2421 -1582,-3722 -252,-1353 -44,-2707 1084,-3933 104,-114 212,-221 323,-323 987,-907 2218,-1360 3450,-1360 1232,0 2464,453 3450,1360 111,102 219,210 323,323 1128,1227 1336,2581 1084,3933 -243,1300 -912,2575 -1582,3722 -344,588 -728,1181 -1148,1771 638,549 1313,1055 1979,1554 324,243 646,484 962,728 625,-506 1206,-1032 1698,-1611 34,-40 68,-81 101,-121 -129,-179 -254,-360 -373,-541 -164,-250 -315,-494 -453,-731 -145,-250 -280,-501 -406,-752l-2 -3c-314,-632 -627,-1336 -741,-2059 -122,-770 -20,-1544 527,-2250 151,-195 319,-362 497,-500 428,-331 916,-497 1407,-497l0 2c492,0 980,165 1407,496 178,138 346,305 497,500 547,706 649,1479 528,2249 -114,724 -425,1428 -736,2060 -218,442 -453,901 -719,1348 -136,230 -281,457 -435,679 260,332 537,656 828,968 237,254 482,500 735,735 191,-158 385,-308 580,-448 11,-8 53,-42 112,-90 1129,-919 8233,-6701 16912,-1650 867,504 1492,1178 1846,1888 276,554 391,1134 331,1682 -61,563 -304,1086 -740,1509 -424,411 -1028,722 -1822,873 -1627,310 -2720,-500 -3915,-1385 -202,-150 -408,-302 -619,-451 -1285,1419 -3167,1967 -5143,1936 -2524,-40 -5219,-1034 -6979,-2354 -191,-143 -380,-293 -565,-448 -163,151 -323,308 -482,470 -379,389 -742,807 -1081,1243 155,223 301,452 438,683 265,448 501,907 719,1348 312,632 622,1336 736,2060 121,770 19,1543 -528,2249 -151,195 -319,362 -497,500 -426,330 -915,496 -1407,496l0 2c-490,0 -979,-166 -1407,-497 -178,-138 -346,-305 -497,-500 -547,-706 -649,-1480 -527,-2250 114,-723 427,-1426 741,-2059l1 0 1 -2c172,-344 364,-689 572,-1032 206,-339 426,-672 659,-996 -33,-40 -65,-80 -99,-119 -492,-579 -1073,-1105 -1698,-1611 -315,244 -638,486 -962,728 -787,589 -1586,1188 -2321,1856zm-572 569l-9 -12c-215,219 -422,447 -618,684 -40,48 -81,99 -123,152 203,282 395,570 576,860 241,387 461,781 655,1176 312,632 622,1336 736,2060 121,770 19,1543 -528,2249 -151,195 -319,362 -497,500 -426,330 -915,496 -1407,496l0 2c-490,0 -979,-166 -1407,-497 -178,-138 -346,-305 -497,-500 -547,-706 -649,-1479 -528,-2249 114,-724 425,-1428 736,-2060 166,-337 355,-680 567,-1041 188,-320 387,-644 602,-986 -22,-27 -59,-72 -110,-134 -194,-235 -399,-460 -614,-677 -47,67 -94,134 -141,201 -442,636 -839,1244 -1194,1851 -636,1088 -1269,2289 -1488,3462 -209,1122 -39,2241 887,3249 89,97 182,189 276,277 832,765 1871,1148 2910,1148 1039,0 2077,-383 2910,-1148 95,-87 187,-179 276,-277 926,-1008 1096,-2127 887,-3249 -219,-1174 -852,-2374 -1488,-3462 -406,-695 -866,-1390 -1371,-2074zm-497 -653c-252,-321 -514,-640 -783,-953 -246,330 -484,652 -714,969 260,257 509,526 744,809l7 -9c237,-286 486,-557 745,-816zm-1824 -5718c331,466 677,937 1042,1426 392,-457 767,-923 1122,-1395 -384,-360 -752,-742 -1092,-1154 -332,400 -692,771 -1072,1123zm-1478 -2255c306,524 644,1050 1016,1593 374,-353 725,-724 1042,-1123 -215,-342 -414,-665 -601,-985 -212,-361 -400,-704 -567,-1041 -312,-632 -622,-1336 -736,-2060 -121,-770 -19,-1543 528,-2249 151,-195 319,-362 497,-500 428,-331 916,-497 1407,-497l0 2c492,0 980,165 1407,496 178,138 346,305 497,500 547,706 649,1479 528,2249 -114,724 -425,1428 -736,2060 -194,394 -414,789 -655,1176 -180,290 -373,578 -576,861 328,412 687,794 1067,1156 381,-541 734,-1088 1054,-1635 636,-1088 1269,-2289 1488,-3462 209,-1122 39,-2241 -887,-3249 -89,-97 -182,-189 -276,-277 -832,-765 -1871,-1148 -2910,-1148 -1039,0 -2077,383 -2910,1148 -95,87 -187,179 -276,277 -926,1008 -1096,2127 -887,3249 219,1174 852,2374 1488,3462zm16113 6839c-6,8 -12,15 -18,23 1113,379 2311,613 3470,631 1715,27 3339,-422 4452,-1580 -206,-121 -418,-234 -640,-333 -1480,-662 -2937,-919 -4228,-688 -1181,212 -2231,839 -3037,1948zm-723 -241c1,-79 26,-159 76,-228 935,-1287 2161,-2016 3543,-2263 1454,-261 3071,18 4694,744 370,166 710,360 1032,567 52,13 103,37 148,73 28,22 52,46 72,73 289,196 565,400 835,600 1048,776 2007,1487 3293,1242 630,-120 1097,-355 1413,-661 296,-287 461,-641 502,-1021 43,-395 -45,-823 -253,-1241 -289,-579 -806,-1132 -1531,-1554 -8204,-4774 -14939,708 -16009,1579 -67,54 -113,92 -150,119 -146,105 -292,216 -437,333 143,117 287,231 433,340 660,495 1462,941 2338,1299zm-4435 -1196c149,-153 301,-302 454,-446 -247,-232 -486,-473 -717,-721 -258,-278 -507,-565 -744,-860 -491,576 -1054,1094 -1656,1589 600,494 1163,1011 1653,1585 320,-402 659,-787 1011,-1147zm-1011 2483c-167,241 -324,483 -472,726 -196,323 -377,649 -540,974l1 0c-287,578 -571,1214 -669,1831 -90,569 -19,1134 371,1638 109,141 228,260 353,357 282,219 602,328 919,328l0 2c316,0 635,-110 919,-330 125,-97 244,-216 353,-357 390,-504 461,-1070 371,-1639 -97,-615 -380,-1251 -665,-1829 -208,-423 -435,-863 -691,-1295 -81,-137 -165,-272 -252,-405zm-7800 -8804c129,221 270,452 422,697 132,-192 259,-386 381,-581 229,-369 436,-740 617,-1107 285,-578 568,-1214 665,-1829 90,-570 19,-1136 -371,-1639 -109,-141 -228,-260 -353,-357 -284,-220 -603,-330 -919,-330l0 2c-317,0 -637,109 -919,328 -125,97 -244,216 -353,357 -390,504 -461,1070 -371,1639 97,615 380,1251 665,1829 162,328 341,654 539,991zm-7057 7462c489,-573 1051,-1088 1649,-1579 -600,-492 -1162,-1008 -1653,-1583 -236,293 -482,578 -739,854 -231,248 -471,489 -717,721 154,144 305,293 454,446 349,358 687,741 1006,1141zm0 1334c-89,136 -174,274 -257,413 -256,432 -482,872 -691,1295 -285,578 -568,1214 -665,1829 -90,570 -19,1136 371,1639 109,141 228,260 353,357 282,219 602,328 919,328l0 2c316,0 635,-110 919,-330 125,-97 244,-216 353,-357 390,-504 461,-1070 371,-1639 -97,-615 -380,-1251 -665,-1829 -157,-319 -336,-643 -532,-968 -153,-253 -313,-500 -479,-740zm-2670 -2918c-145,-117 -291,-228 -437,-333 -37,-26 -83,-64 -150,-119 -1070,-871 -7805,-6353 -16009,-1579 -724,421 -1242,975 -1531,1554 -209,418 -296,846 -253,1241 41,380 206,734 502,1021 316,306 782,541 1413,661 1286,245 2245,-465 3293,-1242 270,-200 546,-404 835,-600 20,-27 45,-52 72,-73 45,-35 96,-59 148,-73 322,-207 662,-401 1032,-567 1623,-726 3240,-1005 4694,-744 1382,248 2608,977 3543,2263 50,69 75,148 76,228 876,-359 1678,-804 2338,-1299 146,-109 290,-223 433,-340zm-10758 620c-221,99 -434,212 -640,333 1113,1159 2737,1607 4452,1580 1160,-18 2357,-252 3470,-631 -6,-7 -12,-15 -18,-23 -806,-1109 -1856,-1736 -3037,-1948 -1291,-231 -2748,26 -4228,688zm28085 -3835c65,99 133,199 201,297 87,-133 170,-268 251,-404 256,-432 482,-872 691,-1295 285,-578 568,-1214 665,-1829 90,-570 19,-1136 -371,-1639 -109,-141 -228,-260 -353,-357 -284,-220 -603,-330 -919,-330l0 2c-317,0 -637,109 -919,328 -125,97 -244,216 -353,357 -390,504 -461,1069 -371,1638 97,616 381,1251 668,1828 119,236 247,473 384,710 139,240 282,472 428,694zm-7178 8406c-152,244 -293,476 -422,696 -198,338 -377,663 -539,991 -285,578 -568,1214 -665,1829 -90,570 -19,1136 371,1639 109,141 228,260 353,357 282,219 602,328 919,328l0 2c316,0 635,-110 919,-330 125,-97 244,-216 353,-357 390,-504 461,-1070 371,-1639 -97,-615 -380,-1251 -665,-1829 -181,-367 -388,-738 -617,-1107 -121,-195 -248,-389 -381,-581zm-7736 -8513c82,139 167,276 256,411 71,-101 139,-203 207,-305 153,-232 297,-466 432,-700 131,-227 255,-461 374,-701 285,-578 568,-1214 665,-1829 90,-570 19,-1136 -371,-1639 -109,-141 -228,-260 -353,-357 -284,-220 -603,-330 -919,-330l0 2c-317,0 -637,109 -919,328 -125,97 -244,216 -353,357 -390,504 -461,1070 -371,1639 97,615 380,1251 665,1829 208,423 435,863 691,1295z"></path></g></g>
</svg>
</g><g opacity="1" transform="rotate(0 521.578 517.3917)">
<svg width="10.8" height="10.8" x="521.578" y="517.3917" version="1.1" preserveAspectRatio="none" viewBox="0 0 10.8 10.8">
  <defs><rect x="1.1880000000000002" y="1.1880000000000002" width="8.424" height="8.424" rx="50%" ry="50%" id="id-Jqmuy15Mz1696005895029"></rect></defs><use class="aJqmuy15MzfillColor icon1-str" style="stroke-width:2.3760000000000003;" xlink:href="#id-Jqmuy15Mz1696005895029"></use>
</svg>
</g><g opacity="1" transform="rotate(0 954.2186 517.3917)">
<svg width="10.8" height="10.8" x="954.2186" y="517.3917" version="1.1" preserveAspectRatio="none" viewBox="0 0 10.8 10.8">
  <defs><rect x="1.1880000000000002" y="1.1880000000000002" width="8.424" height="8.424" rx="50%" ry="50%" id="id-0e3TXQnbx1696005895029"></rect></defs><use class="a0e3TXQnbxfillColor icon1-str" style="stroke-width:2.3760000000000003;" xlink:href="#id-0e3TXQnbx1696005895029"></use>
</svg>
</g></svg></svg>